HIERARCHY
ROOT Hips
{
	OFFSET 0.00000 0.00000 0.00000
	CHANNELS 6 Xposition Yposition Zposition Zrotation Yrotation Xrotation 
	JOINT LHipJoint
	{
		OFFSET 0 0 0
		CHANNELS 3 Zrotation Yrotation Xrotation
		JOINT LeftHip
		{
			OFFSET 1.48211 -1.84579 0.74791
			CHANNELS 3 Zrotation Yrotation Xrotation
			JOINT LeftKnee
			{
				OFFSET 2.56990 -7.06075 0.00000
				CHANNELS 3 Zrotation Yrotation Xrotation
				JOINT LeftAnkle
				{
					OFFSET 2.57933 -7.08667 0.00000
					CHANNELS 3 Zrotation Yrotation Xrotation
					JOINT LeftToe
					{
						OFFSET 0.22969 -0.63106 2.10885
						CHANNELS 3 Zrotation Yrotation Xrotation
						End Site
						{
							OFFSET 0.00000 -0.00000 1.10362
						}
					}
				}
			}
		}
	}
	JOINT RHipJoint
	{
		OFFSET 0 0 0
		CHANNELS 3 Zrotation Yrotation Xrotation
		JOINT RightHip
		{
			OFFSET -1.46257 -1.84580 0.74791
			CHANNELS 3 Zrotation Yrotation Xrotation
			JOINT RightKnee
			{
				OFFSET -2.63352 -7.23555 0.00000
				CHANNELS 3 Zrotation Yrotation Xrotation
				JOINT RightAnkle
				{
					OFFSET -2.53360 -6.96100 0.00000
					CHANNELS 3 Zrotation Yrotation Xrotation
					JOINT RightToe
					{
						OFFSET -0.19079 -0.52420 2.00624
						CHANNELS 3 Zrotation Yrotation Xrotation
						End Site
						{
							OFFSET -0.00000 -0.00000 1.04369
						}
					}
				}
			}
		}
	}
	JOINT lowerback
	{
		OFFSET 0 0 0
		CHANNELS 3 Zrotation Yrotation Xrotation
		JOINT Chest
		{
			OFFSET -0.02583 2.09021 -0.27313
			CHANNELS 3 Zrotation Yrotation Xrotation
			JOINT Chest2
			{
				OFFSET 0.02621 2.11682 -0.03538
				CHANNELS 3 Zrotation Yrotation Xrotation
				JOINT lowerneck
				{
					OFFSET 0 0 0
					CHANNELS 3 Zrotation Yrotation Xrotation
					JOINT Neck
					{
						OFFSET 0.02848 1.69944 0.27193
						CHANNELS 3 Zrotation Yrotation Xrotation
						JOINT Head
						{
							OFFSET -0.09826 1.73070 -0.26626
							CHANNELS 3 Zrotation Yrotation Xrotation
							End Site
							{
								OFFSET -0.03061 1.75878 -0.12207
							}
						}
					}
				}
				JOINT LeftCollar
				{
					OFFSET 0 0 0
					CHANNELS 3 Zrotation Yrotation Xrotation
					JOINT LeftShoulder
					{
						OFFSET 3.42696 0.97228 -0.33778
CHANNELS 3 Zrotation Xrotation Yrotation
						JOINT LeftElbow
						{
OFFSET 0 -5.255250 0.000000
CHANNELS 3 Zrotation Xrotation Yrotation
							JOINT LeftWrist
							{
OFFSET 0 -3.351060 0.000000
CHANNELS 3 Zrotation Xrotation Yrotation
								JOINT lhand
								{
									OFFSET 0 0 0
CHANNELS 3 Zrotation Xrotation Yrotation
									JOINT LFingers
									{
OFFSET 0 -0.574150 0.000000
CHANNELS 3 Zrotation Xrotation Yrotation
										End Site
										{
OFFSET 0 -0.462900 0.000000
										}
									}
								}
								JOINT LThumb
								{
OFFSET 0 0.000000 0.000000
CHANNELS 3 Zrotation Xrotation Yrotation
									End Site
									{
OFFSET 0 -0.469960 0.469960
									}
								}
							}
						}
					}
				}
				JOINT RightCollar
				{
					OFFSET 0 0 0
					CHANNELS 3 Zrotation Yrotation Xrotation
					JOINT RightShoulder
					{
						OFFSET -3.28720 1.02454 -0.32654
CHANNELS 3 Zrotation Xrotation Yrotation
						JOINT RightElbow
						{
OFFSET 0 -5.331040 0.000000
CHANNELS 3 Zrotation Xrotation Yrotation
							JOINT RightWrist
							{
OFFSET 0 -3.398830 0.000000
CHANNELS 3 Zrotation Xrotation Yrotation
								JOINT rhand
								{
									OFFSET 0 0 0
CHANNELS 3 Zrotation Xrotation Yrotation
									JOINT RFingers
									{
OFFSET 0 -0.913890 0.000000
CHANNELS 3 Zrotation Xrotation Yrotation
										End Site
										{
OFFSET 0 -0.736800 0.000000
										}
									}
								}
								JOINT RThumb
								{
OFFSET 0 0.000000 0.000000
CHANNELS 3 Zrotation Xrotation Yrotation
									End Site
									{
OFFSET 0 -0.748050 0.748050
									}
								}
							}
						}
					}
				}
			}
		}
	}
}
MOTION
Frames: 7
Frame Time: 0.008333333333333333
-12.472039 18.624838 -33.181932 -364.018461 -71.656935 -366.937521 0.000000 0.000000 0.000000 -20.079935 1.289798 -1.508114 7.589872 15.808270 51.070109 0.125244 -8.989628 14.854366 1.434374 -7.572208 -21.422095 0.000000 0.000000 0.000000 11.222286 -5.333786 -5.648524 -5.011683 -13.395598 40.870361 -0.206694 2.185892 -8.116860 -2.984983 10.670744 -31.177299 -0.678678 1.850665 15.022845 -0.414275 2.226192 2.236494 -0.494027 1.063543 -6.052067 7.787722 12.524195 -15.628834 -9.215999 18.415135 27.333027 -1.698316 7.657711 13.457767 0.000000 0.000000 0.000000 118.150292 -15.511618 59.221774 15.349949 -24.631194 3.370536 20.350046 -6.232420 -24.488502 0.000000 0.000000 0.000000 -7.125000 0.000000 0.000000 -9.832290 55.619631 2.582752 0.000000 0.000000 0.000000 -127.957638 -3.829217 -62.758669 -21.664358 -32.595638 -6.404110 22.399076 -28.274524 25.587202 0.000000 0.000000 0.000000 7.125000 0.000000 0.000000 49.404775 49.100494 -6.515030
-12.476074 18.376775 -33.714590 -364.168446 -70.642777 -366.986110 0.000000 0.000000 0.000000 -23.958624 -0.596098 1.871615 6.603459 14.987543 47.356046 0.186623 -9.562981 16.321694 1.204611 -6.948771 -19.569307 0.000000 0.000000 0.000000 7.817484 -4.459230 -5.544525 -5.981697 -14.409282 44.905816 -0.237844 -0.931114 -9.625297 -1.569604 7.678520 -21.845955 -0.725658 1.861803 14.693095 -0.315705 2.254464 1.974721 -0.364266 1.084753 -6.154730 8.077149 12.923758 -15.586584 -9.508046 19.002435 27.008918 -1.731717 7.923886 13.447223 0.000000 0.000000 0.000000 126.512584 -16.504454 63.038622 16.601553 -26.324759 3.911512 21.978606 -9.461258 -22.731035 0.000000 0.000000 0.000000 -7.125000 0.000000 0.000000 -7.433567 54.139512 1.676446 0.000000 0.000000 0.000000 -129.120590 -5.839436 -66.600268 -21.888481 -32.850306 -6.525430 24.652033 -38.700468 37.782470 0.000000 0.000000 0.000000 7.125000 0.000000 0.000000 63.419435 56.718465 -24.932303
-12.440041 17.976701 -34.302168 -367.646454 -68.374862 -363.083541 0.000000 0.000000 0.000000 -24.881200 -3.217460 4.457755 6.319941 14.731183 46.252322 -0.216480 -8.816057 2.128264 1.267596 -7.110432 -20.053974 0.000000 0.000000 0.000000 6.415555 -2.932277 -5.075770 -6.483018 -14.880552 46.890491 -0.039377 -6.046822 -9.677697 -0.428723 4.179994 -11.586721 -0.903683 1.312869 14.432861 0.549749 1.576192 1.580312 0.784663 0.775574 -6.458877 7.512817 12.995781 -15.538242 -9.309080 19.054202 25.714597 -1.579784 7.998713 12.822757 0.000000 0.000000 0.000000 132.583101 -15.746078 64.217844 20.229274 -30.889036 5.662158 21.834831 -13.033578 -20.935135 0.000000 0.000000 0.000000 -7.125000 0.000000 0.000000 -6.975390 52.243494 1.259910 0.000000 0.000000 0.000000 -130.287496 -6.889930 -70.535029 -22.922912 -34.002745 -7.095867 24.373117 -46.381940 49.320422 0.000000 0.000000 0.000000 7.125000 0.000000 0.000000 80.042326 62.189693 -47.713301
-12.417174 17.569932 -34.891914 -370.363265 -65.805267 -359.783699 0.000000 0.000000 0.000000 -24.315963 -7.332628 5.234943 6.784829 15.146733 48.053541 0.350676 -7.848901 -10.869201 0.612099 -4.850717 -13.513784 0.000000 0.000000 0.000000 5.975147 0.051541 -2.716359 -6.275577 -14.689170 46.076044 0.265859 -10.115161 -8.317941 -0.109845 -2.101424 5.787421 -1.187943 1.126576 14.889465 1.157060 1.333439 1.155944 1.629212 0.683127 -7.183290 6.214592 12.444186 -15.560803 -8.488541 18.114308 23.694906 -1.299265 7.691346 11.691434 0.000000 0.000000 0.000000 136.564069 -16.135367 66.337112 27.390256 -38.480060 9.768055 23.020500 -13.317524 -17.092073 0.000000 0.000000 0.000000 -7.125000 0.000000 0.000000 -4.762506 48.391371 0.415817 0.000000 0.000000 0.000000 -130.044208 -6.015453 -72.275144 -24.831466 -36.025050 -8.193095 25.173816 -51.512436 58.259045 0.000000 0.000000 0.000000 7.125000 0.000000 0.000000 96.848785 64.002924 -68.768590
-12.385058 17.040005 -35.540215 -370.795776 -63.886515 -359.210740 0.000000 0.000000 0.000000 -23.170125 -11.676635 5.493540 7.448751 15.697225 50.549843 1.277379 -10.257181 -20.321647 0.773429 -5.577357 -15.572889 0.000000 0.000000 0.000000 6.452368 2.871088 1.419248 -5.649361 -14.078212 43.554780 0.070306 -8.148045 -9.907039 -2.652666 9.704495 -28.357976 -2.361683 1.322394 16.334343 1.371439 1.386521 0.781941 2.496784 0.769698 -8.430905 6.912582 12.510484 -15.942805 -9.121435 18.073254 22.551240 -1.614318 7.701625 11.471258 0.000000 0.000000 0.000000 139.474743 -16.235184 68.083865 35.737703 -45.298160 15.346776 23.871906 -12.296105 -10.942868 0.000000 0.000000 0.000000 -7.125000 0.000000 0.000000 -2.912784 41.895559 -0.206655 0.000000 0.000000 0.000000 -128.855003 -5.456686 -72.868057 -27.442257 -38.592397 -9.775818 29.303498 -55.618103 64.140444 0.000000 0.000000 0.000000 7.125000 0.000000 0.000000 82.807308 -64.398291 110.349708
-12.386322 16.636555 -36.174735 -370.594903 -62.383566 -359.111277 0.000000 0.000000 0.000000 -19.747066 -11.773006 3.466937 7.878432 16.029043 52.123494 2.160921 -14.775508 -26.853237 0.104449 -1.933150 -5.324791 0.000000 0.000000 0.000000 6.699991 3.156953 4.109590 -5.152839 -13.553283 41.477721 -0.844861 4.863965 -16.410665 -2.642917 10.085646 -29.261427 -2.683512 1.558313 17.339357 0.845325 1.567855 0.482676 2.051873 0.872241 -9.326019 6.726343 12.567730 -16.378485 -8.842929 18.007190 21.618936 -1.489364 7.722696 11.145900 0.000000 0.000000 0.000000 143.102025 -15.898401 70.368846 40.218927 -48.196780 18.603009 27.874875 -7.977326 -5.120823 0.000000 0.000000 0.000000 -7.125000 0.000000 0.000000 0.991777 35.760222 0.240488 0.000000 0.000000 0.000000 -128.271669 -4.845587 -73.584623 -28.194668 -39.294832 -10.246751 35.426216 -57.520519 65.957784 0.000000 0.000000 0.000000 7.125000 0.000000 0.000000 87.301389 -63.799493 116.425213
-12.431510 16.528842 -36.700309 -370.105416 -61.278470 -359.470467 0.000000 0.000000 0.000000 -18.723885 -13.339654 4.056402 7.656578 15.860592 51.315864 2.953077 -13.575780 -31.123700 0.302660 -3.536158 -9.775232 0.000000 0.000000 0.000000 6.677789 -2.569431 2.844976 -4.810399 -13.166862 39.996795 -1.425089 5.186995 -21.469928 -4.766115 13.086485 -39.740326 -2.606259 1.961411 18.048139 0.582771 2.076537 0.004443 1.569717 1.120083 -10.271097 5.190009 12.116531 -15.382509 -8.245168 17.493828 20.438899 -1.241682 7.542949 10.269210 0.000000 0.000000 0.000000 145.223648 -15.722361 71.838679 40.561462 -48.399071 18.858013 28.236194 -7.222727 -4.807341 0.000000 0.000000 0.000000 -7.125000 0.000000 0.000000 1.309722 35.430021 0.308478 0.000000 0.000000 0.000000 -129.386436 -5.001042 -73.647031 -27.903896 -39.027636 -10.063113 34.936736 -53.250417 68.145812 0.000000 0.000000 0.000000 7.125000 0.000000 0.000000 92.703041 -64.585054 121.313354
